<?xml version="1.0" encoding="UTF-8"?>
<!DOCTYPE svg PUBLIC "-//W3C//DTD SVG 1.1//EN" "http://www.w3.org/Graphics/SVG/1.1/DTD/svg11.dtd">
<!-- Creator: CorelDRAW -->
<svg xmlns="http://www.w3.org/2000/svg" xml:space="preserve" width="1.70666in" height="1.70666in" version="1.1" style="shape-rendering:geometricPrecision; text-rendering:geometricPrecision; image-rendering:optimizeQuality; fill-rule:evenodd; clip-rule:evenodd"
viewBox="0 0 1706.66 1706.66"
 xmlns:xlink="http://www.w3.org/1999/xlink"
 xmlns:xodm="http://www.corel.com/coreldraw/odm/2003">
 <defs>
  <style type="text/css">
   <![CDATA[
    .fil0 {fill:url(#id0)}
   ]]>
  </style>
  <linearGradient id="id0" gradientUnits="userSpaceOnUse" x1="-0" y1="853.33" x2="1706.64" y2="853.33">
   <stop offset="0" style="stop-opacity:1; stop-color:#FFB800"/>
   <stop offset="1" style="stop-opacity:1; stop-color:#FF5329"/>
  </linearGradient>
 </defs>
 <g id="Layer_x0020_1">
  <metadata id="CorelCorpID_0Corel-Layer"/>
  <path class="fil0" d="M1537.54 1706.65l-560.51 0c-11.04,0 -20,-8.97 -20,-20l0 -66.6c0,-113.14 80.9,-209.65 192.39,-229.47 8.37,-1.46 16.72,2.49 20.91,9.83 38.3,67.51 135.64,67.52 173.96,0 4.18,-7.35 12.53,-11.29 20.9,-9.83 111.47,19.83 192.39,116.33 192.39,229.47l0 66.6c-0.03,11.04 -8.99,20 -20.03,20zm-260.18 -646.11l-0 -362.23 -113.59 113.59c-5.68,6.58 -13.21,11.93 -22.49,15.24 -23.03,8.21 -155.01,58.86 -173.96,58.86 -36.69,0 -62.58,-36.7 -50.24,-71.27l57.55 -160.52c3.4,-7.46 8.3,-13.91 14.35,-18.96l288.37 -288.38 -0 -326.89c0,-11.04 -8.96,-20 -20,-20l-1203.41 0c-11.04,0 -20,8.96 -20,20l0 1666.64c0,11.02 8.96,20 20,20l873.63 0c-6.6,-16.3 -3.88,-64.73 -3.88,-86.58 0,-127.48 89.89,-236.7 214.5,-261.28 -121.01,-113.53 -26.94,-318.13 139.16,-298.23zm-497.77 -379.26l-250.08 0c-26.33,0 -26.33,-40 0,-40l250.08 0c26.32,0 26.34,40 0,40zm257 246.73l-507.07 0c-26.33,0 -26.33,-40 0,-40l507.06 0c26.32,0 26.33,40 0.01,40zm0 246.72l-507.07 0c-26.33,0 -26.33,-40 0,-40l507.06 0c26.32,0 26.33,40 0.01,40zm-769.81 -493.45c-14.76,0 -47.08,-38.82 -65.26,-56.98 -18.63,-18.61 9.66,-46.91 28.28,-28.28l36.99 36.97 116.72 -116.71c18.63,-18.63 46.9,9.67 28.28,28.28l-130.86 130.86c-3.9,3.89 -9.02,5.85 -14.15,5.85zm-7.6 246.73c-14.76,0 -47.1,-38.83 -65.25,-56.99 -18.64,-18.64 9.69,-46.92 28.28,-28.29l36.97 36.98 116.74 -116.72c18.63,-18.63 46.9,9.67 28.28,28.28l-130.87 130.87c-3.75,3.76 -8.85,5.87 -14.14,5.87zm0.39 246.76c-14.75,0 -47.13,-38.86 -65.26,-56.99 -18.64,-18.64 9.68,-46.91 28.28,-28.29l36.98 36.98 116.72 -116.72c18.65,-18.65 46.89,9.7 28.28,28.29l-130.86 130.86c-3.91,3.91 -9.02,5.86 -14.15,5.86zm777.02 -772.52l-507.07 0c-26.33,0 -26.33,-40 0,-40l507.06 0c26.33,0 26.33,40 0.01,40zm-769.81 0c-14.78,0 -47.06,-38.81 -65.26,-56.98 -18.63,-18.61 9.66,-46.91 28.28,-28.28l36.99 36.97 116.72 -116.72c18.61,-18.63 46.91,9.67 28.28,28.28l-130.86 130.86c-3.76,3.78 -8.84,5.88 -14.15,5.88zm700.53 450.42c-13.67,0 -23.51,-13.62 -18.85,-26.72l39.07 -109.4 96.1 96.1c-46.67,16.97 -110.78,40.03 -116.33,40.03zm156.02 -55.76c-5.31,0 -10.39,-2.11 -14.15,-5.86l-100.29 -100.29c-7.82,-7.81 -7.82,-20.47 0,-28.28l428.99 -429 128.59 128.58 -428.99 428.99c-3.76,3.76 -8.84,5.87 -14.15,5.87zm342.83 -591.72l21.32 -21.32 128.58 128.58 -21.32 21.32 -128.59 -128.58zm49.61 -49.61c87.06,-87.26 216,41.17 128.58,128.58l-128.58 -128.58zm-259.17 1216.76c-77.12,0 -139.86,-62.75 -139.86,-139.86 0,-77.11 62.75,-139.86 139.86,-139.86 77.11,0 139.86,62.75 139.86,139.86 0,77.11 -62.74,139.86 -139.86,139.86z"/>
 </g>
</svg>
