<?xml version="1.0" encoding="UTF-8"?>
<!DOCTYPE svg PUBLIC "-//W3C//DTD SVG 1.1//EN" "http://www.w3.org/Graphics/SVG/1.1/DTD/svg11.dtd">
<!-- Creator: CorelDRAW -->
<svg xmlns="http://www.w3.org/2000/svg" xml:space="preserve" width="512px" height="512px" version="1.1" style="shape-rendering:geometricPrecision; text-rendering:geometricPrecision; image-rendering:optimizeQuality; fill-rule:evenodd; clip-rule:evenodd"
viewBox="0 0 512 512"
 xmlns:xlink="http://www.w3.org/1999/xlink">
 <defs>
  <style type="text/css">
   <![CDATA[
    .fil3 {fill:#FEFEFE}
    .fil4 {fill:#BDBFC1}
    .fil2 {fill:#5EAC24}
    .fil0 {fill:#C6D3BD}
    .fil1 {fill:#D8E7CE}
   ]]>
  </style>
 </defs>
 <g id="Layer_x0020_1">
  <metadata id="CorelCorpID_0Corel-Layer"/>
  <g id="_387668784">
   <path class="fil0" d="M427 479l-3 0c-93,0 -343,-435 -343,-439l0 -4c0,-20 16,-36 36,-36l310 0c20,0 37,17 37,36l0 407c0,19 -17,36 -37,36z"/>
   <path class="fil1" d="M395 512l-310 0c-20,0 -37,-17 -37,-36l0 -407c0,-19 17,-36 37,-36l310 0c20,0 36,16 36,36l0 407c0,20 -16,36 -36,36z"/>
   <g>
    <path class="fil2" d="M178 458l-60 0c-9,0 -17,-8 -17,-17l0 -60c0,-9 8,-17 17,-17l60 0c9,0 16,8 16,17l0 60c0,9 -7,17 -16,17z"/>
    <path class="fil3" d="M143 429c-2,0 -4,-1 -5,-2l-14 -14c-3,-3 -3,-7 0,-10 3,-3 7,-3 10,0l9 9 18 -17c3,-3 7,-3 10,0 3,3 3,7 0,10l-23 22c-2,1 -3,2 -5,2z"/>
   </g>
   <path class="fil4" d="M388 142l-112 0c-4,0 -7,-3 -7,-7 0,-4 3,-7 7,-7l112 0c4,0 7,3 7,7 0,4 -3,7 -7,7z"/>
   <path class="fil4" d="M388 279l-112 0c-4,0 -7,-3 -7,-7 0,-4 3,-7 7,-7l112 0c4,0 7,3 7,7 0,4 -3,7 -7,7z"/>
   <path class="fil4" d="M392 418l-113 0c-4,0 -7,-3 -7,-7 0,-4 3,-7 7,-7l113 0c4,0 7,3 7,7 0,4 -3,7 -7,7z"/>
   <g>
    <path class="fil2" d="M178 182l-60 0c-9,0 -17,-8 -17,-17l0 -60c0,-9 8,-17 17,-17l60 0c9,0 16,8 16,17l0 60c0,9 -7,17 -16,17z"/>
    <path class="fil3" d="M143 153c-2,0 -4,-1 -5,-2l-14 -14c-3,-3 -3,-7 0,-10 3,-3 7,-3 10,0l9 9 18 -17c3,-3 7,-3 10,0 3,3 3,7 0,10l-23 22c-2,1 -3,2 -5,2z"/>
   </g>
   <g>
    <path class="fil2" d="M178 320l-60 0c-9,0 -17,-8 -17,-17l0 -60c0,-9 8,-17 17,-17l60 0c9,0 16,8 16,17l0 60c0,9 -7,17 -16,17z"/>
    <path class="fil3" d="M143 291c-2,0 -4,-1 -5,-2l-14 -14c-3,-3 -3,-7 0,-10 3,-3 7,-3 10,0l9 9 18 -17c3,-3 7,-3 10,0 3,3 3,7 0,10l-23 22c-2,1 -3,2 -5,2z"/>
   </g>
  </g>
 </g>
</svg>
